<?xml version="1.0" standalone="no"?>
<!DOCTYPE svg PUBLIC "-//W3C//DTD SVG 20010904//EN"
 "http://www.w3.org/TR/2001/REC-SVG-20010904/DTD/svg10.dtd">
<svg version="1.0" xmlns="http://www.w3.org/2000/svg"
 width="850.000000pt" height="850.000000pt" viewBox="0 0 850.000000 850.000000"
 preserveAspectRatio="xMidYMid meet">
<metadata>
Created by potrace 1.11, written by Peter Selinger 2001-2013
</metadata>
<g transform="translate(0.000000,850.000000) scale(0.100000,-0.100000)"
fill="#000000" stroke="none">
<path d="M4177 8054 c-1 -1 -60 -4 -132 -8 -206 -10 -328 -23 -529 -57 -220
-37 -401 -83 -615 -156 -188 -64 -172 -58 -196 -68 -208 -84 -419 -185 -585
-283 -92 -53 -348 -222 -373 -245 -7 -7 -46 -38 -87 -69 -41 -31 -89 -69 -107
-85 -17 -15 -53 -47 -80 -70 -166 -141 -393 -391 -556 -610 -80 -108 -237
-355 -237 -373 0 -5 -4 -10 -10 -10 -5 0 -10 -9 -10 -19 0 -11 -4 -21 -8 -23
-16 -6 -204 -407 -217 -463 -1 -5 -7 -22 -13 -37 -31 -74 -109 -341 -128 -438
-3 -14 -7 -32 -9 -40 -2 -8 -7 -28 -9 -45 -3 -16 -10 -52 -16 -80 -6 -27 -12
-70 -15 -95 -3 -25 -8 -63 -11 -85 -25 -154 -35 -497 -20 -695 11 -150 23
-259 30 -282 3 -7 7 -37 10 -66 3 -29 7 -56 10 -60 2 -4 7 -23 10 -42 11 -67
17 -95 33 -155 8 -33 17 -67 18 -75 2 -8 4 -15 5 -15 1 0 3 -10 6 -22 8 -44
103 -324 139 -411 64 -153 181 -384 243 -482 9 -14 17 -27 17 -30 1 -11 138
-215 146 -218 5 -2 9 -10 9 -17 0 -7 3 -15 8 -17 4 -1 39 -46 79 -98 40 -52
84 -108 98 -125 15 -16 50 -57 78 -89 55 -63 244 -254 293 -296 16 -14 58 -50
94 -80 36 -30 67 -57 70 -60 3 -3 25 -21 50 -40 25 -19 50 -38 55 -42 74 -59
386 -268 400 -268 3 0 24 -12 48 -27 94 -59 542 -269 592 -277 6 -1 15 -4 20
-7 24 -14 300 -101 395 -124 8 -2 44 -11 80 -20 36 -8 74 -18 85 -20 27 -7
171 -33 215 -40 19 -3 46 -8 60 -10 39 -8 99 -15 169 -21 35 -2 67 -7 71 -9 7
-4 270 -17 410 -19 41 -1 81 2 88 7 8 6 12 5 12 -2 0 -7 4 -10 9 -6 5 3 58 7
118 10 105 5 172 10 243 19 19 3 58 7 85 10 28 3 61 8 75 11 27 5 63 11 125
20 22 4 68 13 103 21 34 7 76 16 94 19 17 3 34 8 38 10 3 2 17 6 31 9 46 10
64 14 109 27 25 7 50 13 55 15 78 19 379 128 475 171 75 35 68 32 98 39 12 4
22 10 22 15 0 5 6 9 13 9 24 0 388 195 442 237 9 7 185 126 233 158 9 6 25 17
36 27 12 9 62 48 111 88 114 91 205 171 319 286 126 126 157 160 269 298 18
21 37 44 43 50 27 29 212 294 218 314 4 12 12 22 17 22 5 0 9 5 9 11 0 6 9 24
20 39 47 67 189 344 244 480 15 36 31 74 36 85 5 11 23 63 40 115 18 52 35
102 38 110 3 8 7 20 7 25 1 6 5 17 8 25 13 30 58 209 82 330 16 77 18 92 30
170 4 25 9 58 11 74 3 15 7 51 9 80 2 28 7 83 10 121 14 149 8 508 -10 645
-13 97 -27 196 -30 215 -4 20 -10 51 -21 110 -3 17 -15 68 -26 115 -11 47 -22
94 -24 105 -2 11 -8 31 -13 45 -13 34 -31 104 -28 111 1 3 -3 12 -10 20 -6 8
-14 26 -17 39 -4 22 -45 137 -63 180 -3 8 -7 17 -8 20 -1 5 -19 47 -62 144
-38 86 -153 308 -169 327 -8 8 -14 18 -14 22 0 9 -64 112 -72 115 -5 2 -8 8
-8 13 0 8 -67 112 -93 144 -4 6 -32 44 -63 85 -49 67 -78 104 -137 174 -153
181 -373 394 -544 528 -43 34 -80 64 -83 67 -18 21 -350 242 -350 234 0 -5 -4
-3 -8 3 -18 26 -323 187 -475 250 -34 14 -75 32 -92 40 -154 70 -565 197 -709
218 -21 4 -42 8 -46 11 -4 2 -22 7 -41 9 -19 3 -44 7 -55 10 -12 2 -39 7 -60
10 -22 4 -52 9 -69 12 -32 5 -76 11 -165 20 -30 3 -66 7 -80 9 -44 8 -456 24
-463 19z m373 -588 c25 -2 70 -7 100 -10 30 -4 66 -8 80 -10 14 -2 45 -6 70
-10 25 -4 68 -11 95 -16 28 -5 61 -12 75 -14 14 -3 36 -7 50 -11 14 -3 34 -7
45 -10 46 -10 175 -45 240 -65 39 -12 86 -26 105 -32 150 -44 624 -265 678
-315 7 -7 19 -13 27 -13 7 0 15 -3 17 -7 2 -5 37 -30 78 -57 111 -72 204 -141
310 -229 102 -85 358 -338 403 -398 l28 -37 -38 -15 c-34 -14 -94 -41 -238
-108 -27 -13 -52 -24 -55 -24 -5 -2 -41 -18 -170 -77 -41 -19 -96 -43 -122
-54 -27 -10 -48 -22 -48 -26 0 -5 -7 -8 -15 -8 -9 0 -30 -8 -48 -17 -18 -9
-34 -18 -37 -18 -3 -1 -30 -13 -60 -27 -30 -14 -77 -35 -105 -48 -27 -12 -66
-30 -85 -40 -19 -10 -38 -19 -42 -19 -5 -1 -38 -15 -75 -32 -38 -17 -192 -87
-343 -156 -260 -118 -338 -153 -420 -192 -19 -8 -37 -16 -40 -17 -3 0 -32 -13
-65 -28 -205 -95 -293 -135 -330 -151 -16 -8 -70 -32 -120 -55 -49 -23 -112
-51 -140 -63 -27 -11 -53 -26 -57 -31 -4 -6 -8 -7 -8 -2 0 5 -7 3 -15 -4 -14
-12 -59 6 -340 135 -38 18 -212 97 -385 175 -173 78 -353 160 -398 181 -46 22
-85 39 -87 39 -2 0 -36 15 -77 34 -40 19 -100 46 -133 61 -33 15 -87 39 -120
55 -33 15 -82 38 -110 50 -118 53 -163 74 -220 100 -86 40 -167 77 -270 122
-49 22 -94 43 -100 48 -5 4 -21 11 -35 15 -14 4 -65 27 -115 50 -117 55 -153
71 -252 115 l-83 37 38 44 c107 125 289 305 387 380 17 13 35 29 40 35 6 6 39
33 75 59 36 27 67 52 70 55 3 3 22 16 43 28 20 12 43 26 50 32 72 64 361 222
602 330 119 54 458 162 576 185 11 2 29 7 40 10 10 4 31 8 47 10 15 2 28 4 30
6 4 3 17 5 77 14 64 8 90 13 90 15 0 1 18 3 125 15 25 3 78 8 119 10 41 3 76
7 78 8 4 5 460 -1 513 -7z m-3430 -2234 c41 -20 77 -37 80 -37 11 -4 89 -39
143 -66 31 -15 58 -27 60 -27 1 1 27 -10 57 -24 108 -51 175 -82 180 -83 6 -2
74 -32 151 -68 30 -14 92 -43 139 -64 l85 -39 -2 -1500 c-1 -824 -2 -1505 -2
-1512 -1 -15 -46 18 -123 91 -27 24 -48 43 -48 42 0 -2 -39 38 -87 88 -49 50
-97 100 -108 111 -12 12 -43 48 -70 81 -28 33 -54 65 -60 71 -28 32 -45 55
-45 60 0 2 -9 15 -21 27 -27 28 -177 254 -217 327 -60 108 -132 254 -132 267
0 7 -4 13 -8 13 -5 0 -9 6 -10 13 0 6 -21 62 -47 123 -25 62 -57 149 -71 195
-23 75 -32 110 -60 224 -4 17 -9 37 -11 45 -2 8 -6 26 -8 40 -1 14 -4 25 -5
25 -1 0 -3 9 -5 20 -12 67 -15 85 -20 130 -3 28 -8 61 -11 75 -23 119 -23 621
0 735 7 39 20 130 18 137 -1 4 2 18 8 32 5 14 11 42 14 63 4 30 31 150 50 218
1 6 8 30 15 55 12 46 22 76 42 130 14 36 16 35 129 -18z m6402 -29 c32 -97 66
-210 72 -243 2 -14 13 -68 24 -120 11 -52 23 -120 27 -150 4 -30 9 -66 11 -80
24 -164 24 -607 0 -730 -3 -14 -7 -47 -10 -75 -6 -49 -13 -90 -16 -90 -1 0 -3
-11 -5 -25 -6 -53 -16 -106 -26 -137 -6 -17 -12 -43 -15 -56 -7 -44 -52 -190
-84 -277 -17 -47 -32 -89 -34 -95 -3 -10 -17 -44 -39 -95 -5 -14 -10 -28 -9
-32 1 -3 -5 -12 -13 -18 -8 -7 -15 -18 -15 -25 0 -15 -72 -158 -90 -180 -7 -8
-9 -15 -6 -15 4 0 -2 -13 -13 -29 -12 -16 -21 -34 -21 -39 0 -6 -4 -12 -8 -14
-4 -1 -23 -30 -41 -63 -19 -33 -36 -62 -40 -65 -3 -3 -19 -25 -36 -50 -30 -46
-144 -201 -154 -210 -3 -3 -31 -34 -61 -70 -118 -141 -364 -382 -402 -395 -10
-4 -18 -10 -18 -15 0 -4 -11 -15 -24 -23 l-23 -16 -1 1518 -2 1518 48 21 c26
12 74 33 107 47 33 15 81 37 107 50 25 13 48 21 51 19 2 -2 10 2 17 11 7 8 18
15 24 15 7 0 30 8 52 19 21 10 62 29 89 41 28 12 88 40 133 61 46 22 85 39 87
39 3 0 193 88 290 134 17 8 33 15 36 15 3 1 17 -34 31 -76z m-4312 -920 c36
-17 81 -37 100 -46 19 -8 79 -36 133 -61 55 -25 100 -46 102 -46 2 0 41 -17
87 -39 132 -61 183 -84 188 -86 3 0 25 -10 50 -22 25 -11 121 -55 214 -97
l170 -77 70 32 c39 18 113 52 164 76 51 23 95 43 97 43 4 0 87 38 223 101 46
22 85 39 86 39 2 0 39 17 82 37 43 20 81 38 84 38 3 1 30 13 60 27 57 27 153
70 207 94 l31 14 -2 -58 c-1 -31 2 -67 6 -79 4 -13 4 -23 0 -23 -6 0 -6 -81
-2 -285 0 -5 0 -41 0 -80 0 -38 0 -77 0 -85 0 -8 -1 -41 -3 -73 -1 -32 1 -61
5 -63 5 -3 5 -10 1 -17 -9 -14 -9 -60 1 -75 4 -6 3 -20 -1 -29 -9 -19 -10
-180 -1 -189 3 -3 2 -21 -2 -40 -5 -20 -4 -34 2 -34 5 0 6 -5 2 -11 -8 -13 -9
-142 -2 -155 3 -5 2 -18 -2 -29 -4 -11 -4 -30 1 -42 5 -13 5 -23 1 -23 -8 0
-8 -147 0 -156 3 -3 2 -20 -2 -39 -4 -19 -5 -36 -3 -39 3 -3 5 -34 3 -68 -1
-35 -2 -70 -1 -78 0 -8 0 -49 0 -90 -1 -41 0 -95 0 -120 2 -56 2 -86 0 -154
-1 -30 1 -59 5 -64 3 -6 2 -13 -3 -17 -6 -3 -7 -16 -3 -28 4 -12 6 -35 5 -52
-6 -59 -5 -134 1 -144 4 -5 2 -12 -3 -16 -7 -3 -7 -15 -1 -29 5 -13 6 -26 3
-29 -3 -4 -5 -25 -4 -49 3 -59 3 -55 2 -128 0 -36 0 -72 0 -80 0 -13 0 -42 -1
-132 0 -10 0 -24 0 -30 -1 -7 0 -35 0 -63 1 -27 1 -54 0 -60 -1 -5 -2 -24 -2
-41 l0 -31 -131 -36 c-117 -32 -188 -50 -252 -63 -11 -2 -31 -6 -45 -9 -14 -2
-41 -7 -60 -10 -19 -3 -46 -8 -60 -10 -51 -9 -177 -24 -241 -29 -20 -2 -41 -6
-47 -10 -6 -3 -13 -2 -17 4 -4 6 -13 7 -23 2 -9 -5 -120 -8 -247 -6 -247 2
-326 7 -470 29 -11 1 -42 6 -70 10 -99 13 -293 55 -415 90 -69 19 -134 37
-144 40 -11 2 -22 9 -25 14 -5 7 -7 3063 -2 3119 1 9 6 10 19 4 9 -5 46 -23
82 -39z"/>
</g>
</svg>
