<?xml version="1.0" standalone="yes"?>

<svg version="1.1" viewBox="0.0 0.0 425.3018372703412 396.90813648293965" fill="none" stroke="none" stroke-linecap="square" stroke-miterlimit="10" xmlns="http://www.w3.org/2000/svg" xmlns:xlink="http://www.w3.org/1999/xlink"><clipPath id="p.0"><path d="m0 0l425.30185 0l0 396.90814l-425.30185 0l0 -396.90814z" clip-rule="nonzero"></path></clipPath><g clip-path="url(#p.0)"><path fill="#000000" fill-opacity="0.0" d="m0 0l425.30185 0l0 396.90814l-425.30185 0z" fill-rule="evenodd"></path><path fill="#000000" fill-opacity="0.0" d="m22.289703 198.45398l0 0c0 -98.602394 85.22806 -178.53543 190.3622 -178.53543l0 0c50.487198 0 98.90657 18.80993 134.6064 52.291817c35.69986 33.481895 55.7558 78.893074 55.7558 126.243614l0 0c0 98.60242 -85.22806 178.53543 -190.3622 178.53543l0 0c-105.13414 0 -190.3622 -79.933014 -190.3622 -178.53543z" fill-rule="evenodd"></path><path stroke="#000000" stroke-width="24.0" stroke-linejoin="round" stroke-linecap="butt" d="m22.289703 198.45398l0 0c0 -98.602394 85.22806 -178.53543 190.3622 -178.53543l0 0c50.487198 0 98.90657 18.80993 134.6064 52.291817c35.69986 33.481895 55.7558 78.893074 55.7558 126.243614l0 0c0 98.60242 -85.22806 178.53543 -190.3622 178.53543l0 0c-105.13414 0 -190.3622 -79.933014 -190.3622 -178.53543z" fill-rule="evenodd"></path><path fill="#999999" d="m212.67555 220.27827l-0.07009888 -59.969116l156.13307 -70.897026l0.07009888 59.969124z" fill-rule="evenodd"></path><path fill="#999999" d="m56.91917 89.41213l-0.07009125 59.969124l156.13309 70.89702l0.07008362 -59.969116z" fill-rule="evenodd"></path><path fill="#a5a5a5" d="m155.32884 362.53494l-54.633736 -24.765411l0.08255768 -171.45506l54.633743 24.765411z" fill-rule="evenodd"></path><path fill="#a5a5a5" d="m268.20148 362.54953l54.63376 -24.765411l-0.08258057 -171.48657l-54.63376 24.765427z" fill-rule="evenodd"></path><path fill="#a5a5a5" d="m56.91917 89.41213l-16.118572 52.681816l172.18156 78.184326l16.118576 -52.68181z" fill-rule="evenodd"></path><path fill="#a5a5a5" d="m212.67555 220.27827l-12.984695 -54.104843l169.04767 -76.7613l12.984711 54.10485z" fill-rule="evenodd"></path><path fill="#000000" fill-opacity="0.0" d="m22.289703 198.45398l0 0c0 -98.602394 85.22806 -178.53543 190.3622 -178.53543l0 0c50.487198 0 98.90657 18.80993 134.6064 52.291817c35.69986 33.481895 55.7558 78.893074 55.7558 126.243614l0 0c0 98.60242 -85.22806 178.53543 -190.3622 178.53543l0 0c-105.13414 0 -190.3622 -79.933014 -190.3622 -178.53543z" fill-rule="evenodd"></path><path stroke="#000000" stroke-width="24.0" stroke-linejoin="round" stroke-linecap="butt" d="m22.289703 198.45398l0 0c0 -98.602394 85.22806 -178.53543 190.3622 -178.53543l0 0c50.487198 0 98.90657 18.80993 134.6064 52.291817c35.69986 33.481895 55.7558 78.893074 55.7558 126.243614l0 0c0 98.60242 -85.22806 178.53543 -190.3622 178.53543l0 0c-105.13414 0 -190.3622 -79.933014 -190.3622 -178.53543z" fill-rule="evenodd"></path><path fill="#000000" fill-opacity="0.0" d="m29.10761 198.45407l0 0c0 -96.01927 82.17514 -173.85828 183.54332 -173.85828l0 0c48.678696 0 95.36366 18.31716 129.78471 50.921906c34.42105 32.60475 53.758575 76.82629 53.758575 122.93636l0 0c0 96.01926 -82.17514 173.85828 -183.54329 173.85828l0 0c-101.36817 0 -183.54332 -77.83902 -183.54332 -173.85828z" fill-rule="evenodd"></path><path stroke="#000000" stroke-width="24.0" stroke-linejoin="round" stroke-linecap="butt" d="m29.10761 198.45407l0 0c0 -96.01927 82.17514 -173.85828 183.54332 -173.85828l0 0c48.678696 0 95.36366 18.31716 129.78471 50.921906c34.42105 32.60475 53.758575 76.82629 53.758575 122.93636l0 0c0 96.01926 -82.17514 173.85828 -183.54329 173.85828l0 0c-101.36817 0 -183.54332 -77.83902 -183.54332 -173.85828z" fill-rule="evenodd"></path></g></svg>

